<svg id="Layer_1" data-name="Layer 1" xmlns="http://www.w3.org/2000/svg" xmlns:xlink="http://www.w3.org/1999/xlink" viewBox="0 0 842.87 205"><defs><style>.cls-1,.cls-15,.cls-16{fill:none;}.cls-2{fill:#1d1d1b;}.cls-3{fill:url(#Gradient_bez_nazwy_4);}.cls-4{fill:#074af7;}.cls-10,.cls-11,.cls-12,.cls-13,.cls-4,.cls-5,.cls-6,.cls-7,.cls-8,.cls-9{stroke:#000;}.cls-10,.cls-11,.cls-12,.cls-13,.cls-15,.cls-16,.cls-4,.cls-5,.cls-6,.cls-7,.cls-8,.cls-9{stroke-miterlimit:10;}.cls-5{fill:#186ded;}.cls-6{fill:#183bed;}.cls-7{fill:#07a4f7;}.cls-8{fill:#b41938;}.cls-9{fill:#ff1938;}.cls-10{fill:#ff9c13;}.cls-11{fill:#f0d221;}.cls-12{fill:#007315;}.cls-13{fill:#00a215;}.cls-14{fill:url(#linear-gradient);}.cls-15{stroke:url(#Gradient_bez_nazwy_197);}.cls-16{stroke-linecap:round;stroke-width:17px;stroke:url(#Gradient_bez_nazwy_52);}</style><radialGradient id="Gradient_bez_nazwy_4" cx="102.5" cy="102.5" r="102.5" gradientUnits="userSpaceOnUse"><stop offset="0.5" stop-color="#00629b"/><stop offset="0.81" stop-color="#054a78"/><stop offset="1" stop-color="#074068"/></radialGradient><linearGradient id="linear-gradient" x1="689.2" y1="551.61" x2="364.09" y2="743.25" xlink:href="#Gradient_bez_nazwy_4"/><linearGradient id="Gradient_bez_nazwy_197" x1="278.05" y1="619.09" x2="908.37" y2="619.09" gradientUnits="userSpaceOnUse"><stop offset="0.01" stop-color="#00a0e3"/><stop offset="1" stop-color="#5a86b6"/></linearGradient><linearGradient id="Gradient_bez_nazwy_52" x1="190" y1="194.5" x2="744" y2="194.5" gradientUnits="userSpaceOnUse"><stop offset="0.05" stop-color="#054873"/><stop offset="0.97" stop-color="#5a86b6"/></linearGradient><symbol id="Arrow_26" data-name="Arrow 26" viewBox="0 0 45.72 26.28"><rect class="cls-1" width="45.72" height="26.28"/><polygon class="cls-2" points="0 19.48 22.93 19.48 22.93 26.28 45.72 13.14 22.93 0 22.93 6.8 0 6.8 0 19.48"/></symbol></defs><circle class="cls-3" cx="102.5" cy="102.5" r="102.5"/><g id="Calculator"><rect class="cls-4" x="49.5" y="18.71" width="105.5" height="163.79" rx="28"/><rect class="cls-5" x="49.5" y="18.71" width="102.24" height="163.79" rx="28"/><rect class="cls-6" x="55.36" y="24.68" width="90.52" height="151.85" rx="22"/><g id="Display"><rect id="Display-2" data-name="Display" class="cls-7" x="61.22" y="30.11" width="78.8" height="20.19" rx="7.98"/><path d="M136.88,547.15V538h5.57a.63.63,0,0,1,.43.19.58.58,0,0,1,.18.43.6.6,0,0,1-.18.44.56.56,0,0,1-.43.19h-4.34v1.93h3.11a.6.6,0,0,1,.44.18.58.58,0,0,1,.18.43.61.61,0,0,1-.62.62h-3.11v4.7a.6.6,0,0,1-.18.44.64.64,0,0,1-.44.17.61.61,0,0,1-.43-.17A.6.6,0,0,1,136.88,547.15Z" transform="translate(-66 -503)"/><path d="M146.52,538h5a.59.59,0,0,1,.42.19.56.56,0,0,1,.19.43.6.6,0,0,1-.18.44.57.57,0,0,1-.43.19h-1.86v7.25h1.86a.58.58,0,0,1,.43.18.57.57,0,0,1,.18.43.6.6,0,0,1-.18.44.63.63,0,0,1-.43.17h-5a.61.61,0,0,1-.43-.17.6.6,0,0,1-.18-.44.57.57,0,0,1,.18-.43.58.58,0,0,1,.43-.18h1.89v-7.25h-1.89a.58.58,0,0,1-.43-.18.62.62,0,0,1-.18-.44.6.6,0,0,1,.18-.44A.59.59,0,0,1,146.52,538Z" transform="translate(-66 -503)"/><path d="M161.16,538.67v9.09h-1.65l-3.31-7.54v6.93a.6.6,0,0,1-.18.44.62.62,0,0,1-.44.17.61.61,0,0,1-.43-.17.6.6,0,0,1-.18-.44V538h1.62l3.32,7.54v-6.91a.65.65,0,0,1,.63-.63.61.61,0,0,1,.44.19A.6.6,0,0,1,161.16,538.67Z" transform="translate(-66 -503)"/><path d="M164.05,546.91l2.48-8.41a.6.6,0,0,1,.62-.46.54.54,0,0,1,.58.39l2.45,8.54a1.13,1.13,0,0,1,0,.18.6.6,0,0,1-.18.44.62.62,0,0,1-1-.27l-.48-1.67h-2.82l-.53,1.79a.44.44,0,0,1-.18.22.65.65,0,0,1-.36.1.61.61,0,0,1-.45-.18.64.64,0,0,1-.17-.44A.91.91,0,0,1,164.05,546.91Zm3.09-6-1,3.52h2.08Z" transform="translate(-66 -503)"/><path d="M179.25,538.67v9.09H177.6l-3.31-7.54v6.93a.6.6,0,0,1-.18.44.61.61,0,0,1-.43.17.64.64,0,0,1-.44-.17.6.6,0,0,1-.18-.44V538h1.63l3.32,7.54v-6.91a.59.59,0,0,1,.19-.44.61.61,0,0,1,.44-.19.59.59,0,0,1,.43.19A.6.6,0,0,1,179.25,538.67Z" transform="translate(-66 -503)"/><path d="M185.48,546.54h2.22a.6.6,0,0,1,.44.18.54.54,0,0,1,.19.43.58.58,0,0,1-.19.44.64.64,0,0,1-.44.17h-2.3a1.79,1.79,0,0,1-.9-.27,1.75,1.75,0,0,1-.66-.63l-1.41-2.74a2.76,2.76,0,0,1-.29-1.21,2.46,2.46,0,0,1,.27-1.19l1.43-2.72a2,2,0,0,1,.64-.67,1.54,1.54,0,0,1,.83-.29h2.43a.61.61,0,0,1,.44.19.58.58,0,0,1,.18.43.6.6,0,0,1-.18.44.58.58,0,0,1-.44.19H185.4a.53.53,0,0,0-.47.34l-1.36,2.55a1.33,1.33,0,0,0-.16.71,1.58,1.58,0,0,0,.17.76l1.3,2.5A.62.62,0,0,0,185.48,546.54Z" transform="translate(-66 -503)"/><path d="M194.89,543.1v4a.6.6,0,0,1-.18.44.66.66,0,0,1-.44.17.64.64,0,0,1-.44-.17.6.6,0,0,1-.18-.44v-4L191.17,540v-1.31a.6.6,0,0,1,.18-.44.6.6,0,0,1,.88,0,.65.65,0,0,1,.19.45v.84l1.84,2.37,1.87-2.36v-.86a.6.6,0,0,1,.18-.44.63.63,0,0,1,.44-.19.58.58,0,0,1,.42.18.55.55,0,0,1,.19.45V540Z" transform="translate(-66 -503)"/></g><g id="Button_C" data-name="Button C"><rect class="cls-8" x="122.44" y="86.12" width="17.58" height="23.44" rx="6.95"/><rect class="cls-9" x="122.44" y="86.12" width="14.98" height="23.44" rx="5.92"/><path d="M196.25,605h2.22a.6.6,0,0,1,.44.18.58.58,0,0,1,.19.44.56.56,0,0,1-.19.43.6.6,0,0,1-.44.18h-2.29a1.72,1.72,0,0,1-.91-.28,1.63,1.63,0,0,1-.65-.62l-1.42-2.74a2.76,2.76,0,0,1-.29-1.21,2.53,2.53,0,0,1,.27-1.2l1.44-2.71a1.9,1.9,0,0,1,.63-.67,1.55,1.55,0,0,1,.84-.29h2.43a.56.56,0,0,1,.43.19.58.58,0,0,1,.18.43.62.62,0,0,1-.18.44.59.59,0,0,1-.43.19h-2.34a.53.53,0,0,0-.48.34l-1.36,2.54a1.46,1.46,0,0,0-.16.71,1.71,1.71,0,0,0,.17.77l1.3,2.5A.63.63,0,0,0,196.25,605Z" transform="translate(-66 -503)"/></g><g id="Button_DOWN" data-name="Button DOWN"><rect class="cls-10" x="102.25" y="56.81" width="38.42" height="23.44" rx="9.27"/><rect class="cls-11" x="102.25" y="56.81" width="35.82" height="23.44" rx="9.27"/><use width="45.72" height="26.28" transform="matrix(0, 0.26, 0.58, 0, 112.31, 62.67)" xlink:href="#Arrow_26"/></g><g id="Button_UP" data-name="Button UP"><rect class="cls-10" x="60.57" y="56.81" width="38.42" height="23.44" rx="9.27"/><rect class="cls-11" x="60.57" y="56.81" width="35.82" height="23.44" rx="9.27"/><use width="45.72" height="26.28" transform="matrix(0, -0.26, 0.58, 0, 70.99, 74.72)" xlink:href="#Arrow_26"/></g><g id="Button_" data-name="Button $"><rect class="cls-10" x="122.44" y="115.1" width="17.58" height="53.08" rx="6.95"/><rect class="cls-11" x="122.44" y="115.1" width="14.98" height="53.08" rx="5.92"/><path d="M201.2,644.23v5.94a2.25,2.25,0,0,1-.32,1.21.89.89,0,0,1-.75.51H197v4.18a2.23,2.23,0,0,1-.31,1.22.87.87,0,0,1-.73.5.89.89,0,0,1-.75-.5,2.23,2.23,0,0,1-.31-1.22v-4.22H191.7a.9.9,0,0,1-.74-.5,2.35,2.35,0,0,1-.3-1.22,2.31,2.31,0,0,1,.3-1.21.86.86,0,0,1,.74-.5h7.36V646h-7.34a.9.9,0,0,1-.74-.49,2.34,2.34,0,0,1-.3-1.23v-5.92a2.35,2.35,0,0,1,.3-1.22.89.89,0,0,1,.74-.5h3.13v-4.18a2.36,2.36,0,0,1,.29-1.21.87.87,0,0,1,.79-.51.86.86,0,0,1,.72.5,2.35,2.35,0,0,1,.3,1.22v4.18h3.2a.89.89,0,0,1,.75.51,2.21,2.21,0,0,1,.32,1.21,2.27,2.27,0,0,1-.32,1.24.91.91,0,0,1-.75.52h-7.36v2.45h7.34a.89.89,0,0,1,.75.51A2.24,2.24,0,0,1,201.2,644.23Z" transform="translate(-66 -503)"/></g><g id="Button_3" data-name="Button 3"><rect class="cls-12" x="102.25" y="144.73" width="17.58" height="23.44" rx="6.95"/><rect class="cls-13" x="102.25" y="144.73" width="14.98" height="23.44" rx="5.92"/><path d="M179,655.15v2.31a1.77,1.77,0,0,1-.5,1.3A1.82,1.82,0,0,1,179,660v2.4a1.19,1.19,0,0,1-.36.87,1.22,1.22,0,0,1-.88.36h-4.35a.61.61,0,0,1-.61-.61.6.6,0,0,1,.18-.44.58.58,0,0,1,.43-.18h4.33V660a.6.6,0,0,0-.18-.44.57.57,0,0,0-.43-.19h-2.47a.6.6,0,0,1-.44-.17.62.62,0,0,1,.44-1.06h2.48a.61.61,0,0,0,.44-.17.6.6,0,0,0,.18-.44v-2.38h-4.39a.57.57,0,0,1-.43-.18.58.58,0,0,1-.18-.43.6.6,0,0,1,.18-.44.57.57,0,0,1,.43-.18h4.39a1.19,1.19,0,0,1,.87.37A1.18,1.18,0,0,1,179,655.15Z" transform="translate(-66 -503)"/></g><g id="Button_4" data-name="Button 4"><rect class="cls-12" x="60.57" y="115.42" width="17.58" height="23.44" rx="6.95"/><rect class="cls-13" x="60.57" y="115.42" width="14.98" height="23.44" rx="5.92"/><path d="M135,634.11v-2.56h-3.7v-5.91a.61.61,0,0,1,.19-.45A.6.6,0,0,1,132,625a.58.58,0,0,1,.43.18.64.64,0,0,1,.18.45v4.67H135v-3.6a.6.6,0,0,1,.18-.44.61.61,0,0,1,.44-.19.59.59,0,0,1,.43.19.6.6,0,0,1,.18.44v3.6a.6.6,0,0,1,.44.18.59.59,0,0,1,.18.44.58.58,0,0,1-.18.43.6.6,0,0,1-.44.18v2.57a.6.6,0,0,1-.18.44.6.6,0,0,1-.43.18.61.61,0,0,1-.62-.62Z" transform="translate(-66 -503)"/></g><g id="Button_5" data-name="Button 5"><rect class="cls-12" x="81.41" y="115.42" width="17.58" height="23.44" rx="6.95"/><rect class="cls-13" x="81.41" y="115.42" width="14.98" height="23.44" rx="5.92"/><path d="M154.1,633.93H157v-3h-3.72v-5.47h4.33a.56.56,0,0,1,.43.19.58.58,0,0,1,.18.43.61.61,0,0,1-.17.43.6.6,0,0,1-.44.18h-3.09v3H157a1.23,1.23,0,0,1,1.22,1.23v3a1.23,1.23,0,0,1-1.22,1.23H154.1a2.13,2.13,0,0,1-.81-.18l-.93-.39a.65.65,0,0,1-.2-1,.52.52,0,0,1,.4-.18,1.09,1.09,0,0,1,.43.11l.81.34A.58.58,0,0,0,154.1,633.93Z" transform="translate(-66 -503)"/></g><g id="Button_6" data-name="Button 6"><rect class="cls-12" x="102.25" y="115.42" width="17.58" height="23.44" rx="6.95"/><rect class="cls-13" x="102.25" y="115.42" width="14.98" height="23.44" rx="5.92"/><path d="M173.32,625h.62a.56.56,0,0,1,.43.19.61.61,0,0,1-.43,1v4.06h4.33a.57.57,0,0,1,.43.19.6.6,0,0,1,.18.44v3.17a.6.6,0,0,1-.18.44.64.64,0,0,1-.45.18h-4.93a.59.59,0,0,1-.44-.19.58.58,0,0,1-.18-.43v-8.47a.61.61,0,0,1,.62-.62Zm.6,6.53v2h3.72v-2Z" transform="translate(-66 -503)"/></g><g id="Button_7" data-name="Button 7"><rect class="cls-12" x="60.57" y="86.12" width="17.58" height="23.44" rx="6.95"/><rect class="cls-13" x="60.57" y="86.12" width="14.98" height="23.44" rx="5.92"/><path d="M131.31,598.14v-.53a.57.57,0,0,1,.18-.43.6.6,0,0,1,.44-.18h5.57v3.77a.64.64,0,0,1-.23.5L135,603.2v2.86a.6.6,0,0,1-.18.44.59.59,0,0,1-.43.19.58.58,0,0,1-.44-.19.56.56,0,0,1-.19-.43V603a.67.67,0,0,1,.22-.54l2.27-1.92v-2.29h-3.72a.59.59,0,0,1-.61.53.6.6,0,0,1-.44-.18A.58.58,0,0,1,131.31,598.14Z" transform="translate(-66 -503)"/></g><g id="Button_8" data-name="Button 8"><rect class="cls-12" x="81.41" y="86.12" width="17.58" height="23.44" rx="6.95"/><rect class="cls-13" x="81.41" y="86.12" width="14.98" height="23.44" rx="5.92"/><path d="M151.49,605.34v-3a1.19,1.19,0,0,1,.36-.87,1.22,1.22,0,0,1,.88-.36v-3.62a.61.61,0,0,1,.17-.43.6.6,0,0,1,.44-.18h2.5a.59.59,0,0,1,.44.18.58.58,0,0,1,.18.43v3.62a1.18,1.18,0,0,1,.86.36,1.13,1.13,0,0,1,.37.87v3a1.16,1.16,0,0,1-.37.87,1.18,1.18,0,0,1-.86.36h-3.73a1.14,1.14,0,0,1-.88-.38A1.21,1.21,0,0,1,151.49,605.34Zm1.24-3v3h3.73v-3Zm1.23-4.23v3h1.27v-3Z" transform="translate(-66 -503)"/></g><g id="Button_9" data-name="Button 9"><rect class="cls-12" x="102.25" y="86.12" width="17.58" height="23.44" rx="6.95"/><rect class="cls-13" x="102.25" y="86.12" width="14.98" height="23.44" rx="5.92"/><path d="M178.78,606.57h-.62a.6.6,0,0,1-.43-.18.6.6,0,0,1-.18-.44.61.61,0,0,1,.61-.61v-4.06h-4.33a.61.61,0,0,1-.61-.61v-3.19a.62.62,0,0,1,.18-.44.6.6,0,0,1,.43-.18h4.95a.6.6,0,0,1,.43.18.62.62,0,0,1,.18.44V606a.6.6,0,0,1-.18.44A.58.58,0,0,1,178.78,606.57Zm-.6-6.53v-1.93h-3.73V600Z" transform="translate(-66 -503)"/></g><g id="Button_2" data-name="Button 2"><rect class="cls-12" x="81.41" y="144.73" width="17.58" height="23.44" rx="6.95"/><rect class="cls-13" x="81.41" y="144.73" width="14.98" height="23.44" rx="5.92"/><path d="M157.43,663.63h-5.59v-4.24a1.21,1.21,0,0,1,.36-.88,1.19,1.19,0,0,1,.87-.37h3.73v-3h-4.39A.6.6,0,0,1,152,655a.61.61,0,0,1-.17-.43.64.64,0,0,1,.17-.44.6.6,0,0,1,.44-.18h4.39a1.23,1.23,0,0,1,.88.37,1.18,1.18,0,0,1,.36.86v3a1.23,1.23,0,0,1-1.24,1.25h-3.73v3h4.36a.6.6,0,0,1,.43.18.6.6,0,0,1,.18.44.58.58,0,0,1-.18.43A.6.6,0,0,1,157.43,663.63Z" transform="translate(-66 -503)"/></g><g id="Button_1" data-name="Button 1"><rect class="cls-12" x="60.57" y="144.73" width="17.58" height="23.44" rx="6.95"/><rect class="cls-13" x="60.57" y="144.73" width="14.98" height="23.44" rx="5.92"/><path d="M131.4,662.08h1.89v-7.25h-1.86a.58.58,0,0,1-.43-.18.6.6,0,0,1-.18-.44.61.61,0,0,1,.61-.61h3.09v8.48h1.23v-2.56a.62.62,0,0,1,.18-.44.58.58,0,0,1,.43-.18.61.61,0,0,1,.62.62v3.17a.6.6,0,0,1-.18.44.6.6,0,0,1-.44.17h-5a.58.58,0,0,1-.43-.18.62.62,0,0,1-.18-.44.58.58,0,0,1,.18-.43A.57.57,0,0,1,131.4,662.08Z" transform="translate(-66 -503)"/></g></g><path class="cls-2" d="M278.05,661.46V540.89h73.79a7.9,7.9,0,0,1,5.67,2.42A7.76,7.76,0,0,1,360,549a8.08,8.08,0,0,1-2.42,5.86,7.74,7.74,0,0,1-5.72,2.47H294.32v25.57h41.25a8.14,8.14,0,1,1,0,16.27H294.32v62.27a8.14,8.14,0,1,1-16.27,0Z" transform="translate(-66 -503)"/><path class="cls-2" d="M427.8,669.4H378.22a8.14,8.14,0,0,1,0-16.27h16.66V592.41H378.41a7.77,7.77,0,0,1-5.76-2.42,7.89,7.89,0,0,1-2.37-5.71,8.17,8.17,0,0,1,2.37-5.86,7.67,7.67,0,0,1,5.76-2.47H403.2a7.71,7.71,0,0,1,5.77,2.47,8.17,8.17,0,0,1,2.37,5.86v68.85h16.27a8.18,8.18,0,0,1,5.86,2.37,8,8,0,0,1,0,11.53A7.91,7.91,0,0,1,427.8,669.4ZM394.68,533.72h8.52a8.11,8.11,0,0,1,8.14,8.14v7a8.18,8.18,0,0,1-2.37,5.86,7.71,7.71,0,0,1-5.77,2.47h-8.71a8.19,8.19,0,0,1-8.14-8.14l.2-7.16a8.11,8.11,0,0,1,8.13-8.14Z" transform="translate(-66 -503)"/><path class="cls-2" d="M488.7,595l-22.23,14.43v52a8.14,8.14,0,0,1-16.27,0V584.28a8.13,8.13,0,0,1,2.38-5.86,7.89,7.89,0,0,1,11.47,0,8.05,8.05,0,0,1,2.42,5.86v5.42l14.85-9A30.81,30.81,0,0,1,498.19,576h7.57a23.29,23.29,0,0,1,16.78,6.87A24.13,24.13,0,0,1,530,599.77l2.23,61.69a7.49,7.49,0,0,1-2.32,5.71,7.92,7.92,0,0,1-5.81,2.42,8.13,8.13,0,0,1-5.62-2.17,7.88,7.88,0,0,1-2.52-6l-2.42-60.72q-.28-8.52-8.93-8.52h-8A14.6,14.6,0,0,0,488.7,595Z" transform="translate(-66 -503)"/><path class="cls-2" d="M570.45,610.91h31.9a35.61,35.61,0,0,1,7.57,1.16l-.19-11.53a8.11,8.11,0,0,0-8.15-8.13h-31a8.14,8.14,0,1,1,0-16.27h30.94a23.56,23.56,0,0,1,17.21,7.07,24.49,24.49,0,0,1,7.42,17.33l2,60.92a7.74,7.74,0,0,1-2.43,5.76,7.87,7.87,0,0,1-5.71,2.37,8.15,8.15,0,0,1-5.91-2.37,7.77,7.77,0,0,1-2.42-5.76L598,669.59H570.45A24.48,24.48,0,0,1,545.81,645v-9.49a24.65,24.65,0,0,1,24.64-24.6Zm40.68,31.67-.48-6.88a8.26,8.26,0,0,0-2.43-5.81,7.77,7.77,0,0,0-5.72-2.33H570.42a8.11,8.11,0,0,0-8.14,8.14v9.1a8.27,8.27,0,0,0,8.14,8.14h23Z" transform="translate(-66 -503)"/><path class="cls-2" d="M676.72,595,654.5,609.46v52a8.14,8.14,0,0,1-16.27,0V584.28a8.17,8.17,0,0,1,2.37-5.86,7.9,7.9,0,0,1,11.48,0,8.09,8.09,0,0,1,2.42,5.86v5.42l14.84-9A30.84,30.84,0,0,1,686.22,576h7.56a23.28,23.28,0,0,1,16.78,6.87A24.09,24.09,0,0,1,718,599.77l2.22,61.69a7.45,7.45,0,0,1-2.32,5.71,7.89,7.89,0,0,1-5.81,2.42,8.16,8.16,0,0,1-5.62-2.17,8,8,0,0,1-2.52-6l-2.42-60.72q-.28-8.52-8.93-8.52h-8A14.66,14.66,0,0,0,676.72,595Z" transform="translate(-66 -503)"/><path class="cls-2" d="M804.24,669.59H769.48a23.38,23.38,0,0,1-15.69-5.52L738,650.32q-7.54-6.29-7.55-17V612.07q-.39-10.37,8.52-18l14.24-12.3a22.83,22.83,0,0,1,14.72-5.62h36.51a8.14,8.14,0,1,1,0,16.27h-35a9.46,9.46,0,0,0-6.3,2.62l-13.07,11.13a9.06,9.06,0,0,0-3.2,7.27v19.85a7,7,0,0,0,2.52,5.42l14.33,12.2a10.35,10.35,0,0,0,7.17,2.43h33.31A7.91,7.91,0,0,1,810,655.7a8.12,8.12,0,0,1,0,11.52A7.88,7.88,0,0,1,804.24,669.59Z" transform="translate(-66 -503)"/><path class="cls-2" d="M908.37,600l-43.85,99.18q-2.24,5.31-7.75,5.32H834.2a7.93,7.93,0,0,1-5.77-2.33,7.8,7.8,0,0,1-2.37-5.81,7.68,7.68,0,0,1,2.37-5.71,7.91,7.91,0,0,1,5.76-2.32h17.43l11.14-25.86h-4q-5.52,0-8-5.71L826.44,600V584.28a8,8,0,0,1,2.33-5.77,7.58,7.58,0,0,1,5.62-2.37,8.16,8.16,0,0,1,5.85,2.37,7.71,7.71,0,0,1,2.47,5.77v12.1L864.12,646h5.65l22.1-49.4,0-12.49a7.75,7.75,0,0,1,2.47-5.65,8,8,0,0,1,5.86-2.47,8.27,8.27,0,0,1,8.13,8.13Z" transform="translate(-66 -503)"/><path class="cls-14" d="M278.05,661.46V540.89h73.79a7.9,7.9,0,0,1,5.67,2.42A7.76,7.76,0,0,1,360,549a8.08,8.08,0,0,1-2.42,5.86,7.74,7.74,0,0,1-5.72,2.47H294.32v25.57h41.25a8.14,8.14,0,1,1,0,16.27H294.32v62.27a8.14,8.14,0,1,1-16.27,0Z" transform="translate(-66 -503)"/><path class="cls-14" d="M427.8,669.4H378.22a8.14,8.14,0,0,1,0-16.27h16.66V592.41H378.41a7.77,7.77,0,0,1-5.76-2.42,7.89,7.89,0,0,1-2.37-5.71,8.17,8.17,0,0,1,2.37-5.86,7.67,7.67,0,0,1,5.76-2.47H403.2a7.71,7.71,0,0,1,5.77,2.47,8.17,8.17,0,0,1,2.37,5.86v68.85h16.27a8.18,8.18,0,0,1,5.86,2.37,8,8,0,0,1,0,11.53A7.91,7.91,0,0,1,427.8,669.4ZM394.68,533.72h8.52a8.11,8.11,0,0,1,8.14,8.14v7a8.18,8.18,0,0,1-2.37,5.86,7.71,7.71,0,0,1-5.77,2.47h-8.71a8.19,8.19,0,0,1-8.14-8.14l.2-7.16a8.11,8.11,0,0,1,8.13-8.14Z" transform="translate(-66 -503)"/><path class="cls-14" d="M488.7,595l-22.23,14.43v52a8.14,8.14,0,0,1-16.27,0V584.28a8.13,8.13,0,0,1,2.38-5.86,7.89,7.89,0,0,1,11.47,0,8.05,8.05,0,0,1,2.42,5.86v5.42l14.85-9A30.81,30.81,0,0,1,498.19,576h7.57a23.29,23.29,0,0,1,16.78,6.87A24.13,24.13,0,0,1,530,599.77l2.23,61.69a7.49,7.49,0,0,1-2.32,5.71,7.92,7.92,0,0,1-5.81,2.42,8.13,8.13,0,0,1-5.62-2.17,7.88,7.88,0,0,1-2.52-6l-2.42-60.72q-.28-8.52-8.93-8.52h-8A14.6,14.6,0,0,0,488.7,595Z" transform="translate(-66 -503)"/><path class="cls-14" d="M570.45,610.91h31.9a35.61,35.61,0,0,1,7.57,1.16l-.19-11.53a8.11,8.11,0,0,0-8.15-8.13h-31a8.14,8.14,0,1,1,0-16.27h30.94a23.56,23.56,0,0,1,17.21,7.07,24.49,24.49,0,0,1,7.42,17.33l2,60.92a7.74,7.74,0,0,1-2.43,5.76,7.87,7.87,0,0,1-5.71,2.37,8.15,8.15,0,0,1-5.91-2.37,7.77,7.77,0,0,1-2.42-5.76L598,669.59H570.45A24.48,24.48,0,0,1,545.81,645v-9.49a24.65,24.65,0,0,1,24.64-24.6Zm40.68,31.67-.48-6.88a8.26,8.26,0,0,0-2.43-5.81,7.77,7.77,0,0,0-5.72-2.33H570.42a8.11,8.11,0,0,0-8.14,8.14v9.1a8.27,8.27,0,0,0,8.14,8.14h23Z" transform="translate(-66 -503)"/><path class="cls-14" d="M676.72,595,654.5,609.46v52a8.14,8.14,0,0,1-16.27,0V584.28a8.17,8.17,0,0,1,2.37-5.86,7.9,7.9,0,0,1,11.48,0,8.09,8.09,0,0,1,2.42,5.86v5.42l14.84-9A30.84,30.84,0,0,1,686.22,576h7.56a23.28,23.28,0,0,1,16.78,6.87A24.09,24.09,0,0,1,718,599.77l2.22,61.69a7.45,7.45,0,0,1-2.32,5.71,7.89,7.89,0,0,1-5.81,2.42,8.16,8.16,0,0,1-5.62-2.17,8,8,0,0,1-2.52-6l-2.42-60.72q-.28-8.52-8.93-8.52h-8A14.66,14.66,0,0,0,676.72,595Z" transform="translate(-66 -503)"/><path class="cls-14" d="M804.24,669.59H769.48a23.38,23.38,0,0,1-15.69-5.52L738,650.32q-7.54-6.29-7.55-17V612.07q-.39-10.37,8.52-18l14.24-12.3a22.83,22.83,0,0,1,14.72-5.62h36.51a8.14,8.14,0,1,1,0,16.27h-35a9.46,9.46,0,0,0-6.3,2.62l-13.07,11.13a9.06,9.06,0,0,0-3.2,7.27v19.85a7,7,0,0,0,2.52,5.42l14.33,12.2a10.35,10.35,0,0,0,7.17,2.43h33.31A7.91,7.91,0,0,1,810,655.7a8.12,8.12,0,0,1,0,11.52A7.88,7.88,0,0,1,804.24,669.59Z" transform="translate(-66 -503)"/><path class="cls-14" d="M908.37,600l-43.85,99.18q-2.24,5.31-7.75,5.32H834.2a7.93,7.93,0,0,1-5.77-2.33,7.8,7.8,0,0,1-2.37-5.81,7.68,7.68,0,0,1,2.37-5.71,7.91,7.91,0,0,1,5.76-2.32h17.43l11.14-25.86h-4q-5.52,0-8-5.71L826.44,600V584.28a8,8,0,0,1,2.33-5.77,7.58,7.58,0,0,1,5.62-2.37,8.16,8.16,0,0,1,5.85,2.37,7.71,7.71,0,0,1,2.47,5.77v12.1L864.12,646h5.65l22.1-49.4,0-12.49a7.75,7.75,0,0,1,2.47-5.65,8,8,0,0,1,5.86-2.47,8.27,8.27,0,0,1,8.13,8.13Z" transform="translate(-66 -503)"/><path class="cls-15" d="M278.05,661.46V540.89h73.79a7.9,7.9,0,0,1,5.67,2.42A7.76,7.76,0,0,1,360,549a8.08,8.08,0,0,1-2.42,5.86,7.74,7.74,0,0,1-5.72,2.47H294.32v25.57h41.25a8.14,8.14,0,1,1,0,16.27H294.32v62.27a8.14,8.14,0,1,1-16.27,0Z" transform="translate(-66 -503)"/><path class="cls-15" d="M427.8,669.4H378.22a8.14,8.14,0,0,1,0-16.27h16.66V592.41H378.41a7.77,7.77,0,0,1-5.76-2.42,7.89,7.89,0,0,1-2.37-5.71,8.17,8.17,0,0,1,2.37-5.86,7.67,7.67,0,0,1,5.76-2.47H403.2a7.71,7.71,0,0,1,5.77,2.47,8.17,8.17,0,0,1,2.37,5.86v68.85h16.27a8.18,8.18,0,0,1,5.86,2.37,8,8,0,0,1,0,11.53A7.91,7.91,0,0,1,427.8,669.4ZM394.68,533.72h8.52a8.11,8.11,0,0,1,8.14,8.14v7a8.18,8.18,0,0,1-2.37,5.86,7.71,7.71,0,0,1-5.77,2.47h-8.71a8.19,8.19,0,0,1-8.14-8.14l.2-7.16a8.11,8.11,0,0,1,8.13-8.14Z" transform="translate(-66 -503)"/><path class="cls-15" d="M488.7,595l-22.23,14.43v52a8.14,8.14,0,0,1-16.27,0V584.28a8.13,8.13,0,0,1,2.38-5.86,7.89,7.89,0,0,1,11.47,0,8.05,8.05,0,0,1,2.42,5.86v5.42l14.85-9A30.81,30.81,0,0,1,498.19,576h7.57a23.29,23.29,0,0,1,16.78,6.87A24.13,24.13,0,0,1,530,599.77l2.23,61.69a7.49,7.49,0,0,1-2.32,5.71,7.92,7.92,0,0,1-5.81,2.42,8.13,8.13,0,0,1-5.62-2.17,7.88,7.88,0,0,1-2.52-6l-2.42-60.72q-.28-8.52-8.93-8.52h-8A14.6,14.6,0,0,0,488.7,595Z" transform="translate(-66 -503)"/><path class="cls-15" d="M570.45,610.91h31.9a35.61,35.61,0,0,1,7.57,1.16l-.19-11.53a8.11,8.11,0,0,0-8.15-8.13h-31a8.14,8.14,0,1,1,0-16.27h30.94a23.56,23.56,0,0,1,17.21,7.07,24.49,24.49,0,0,1,7.42,17.33l2,60.92a7.74,7.74,0,0,1-2.43,5.76,7.87,7.87,0,0,1-5.71,2.37,8.15,8.15,0,0,1-5.91-2.37,7.77,7.77,0,0,1-2.42-5.76L598,669.59H570.45A24.48,24.48,0,0,1,545.81,645v-9.49a24.65,24.65,0,0,1,24.64-24.6Zm40.68,31.67-.48-6.88a8.26,8.26,0,0,0-2.43-5.81,7.77,7.77,0,0,0-5.72-2.33H570.42a8.11,8.11,0,0,0-8.14,8.14v9.1a8.27,8.27,0,0,0,8.14,8.14h23Z" transform="translate(-66 -503)"/><path class="cls-15" d="M676.72,595,654.5,609.46v52a8.14,8.14,0,0,1-16.27,0V584.28a8.17,8.17,0,0,1,2.37-5.86,7.9,7.9,0,0,1,11.48,0,8.09,8.09,0,0,1,2.42,5.86v5.42l14.84-9A30.84,30.84,0,0,1,686.22,576h7.56a23.28,23.28,0,0,1,16.78,6.87A24.09,24.09,0,0,1,718,599.77l2.22,61.69a7.45,7.45,0,0,1-2.32,5.71,7.89,7.89,0,0,1-5.81,2.42,8.16,8.16,0,0,1-5.62-2.17,8,8,0,0,1-2.52-6l-2.42-60.72q-.28-8.52-8.93-8.52h-8A14.66,14.66,0,0,0,676.72,595Z" transform="translate(-66 -503)"/><path class="cls-15" d="M804.24,669.59H769.48a23.38,23.38,0,0,1-15.69-5.52L738,650.32q-7.54-6.29-7.55-17V612.07q-.39-10.37,8.52-18l14.24-12.3a22.83,22.83,0,0,1,14.72-5.62h36.51a8.14,8.14,0,1,1,0,16.27h-35a9.46,9.46,0,0,0-6.3,2.62l-13.07,11.13a9.06,9.06,0,0,0-3.2,7.27v19.85a7,7,0,0,0,2.52,5.42l14.33,12.2a10.35,10.35,0,0,0,7.17,2.43h33.31A7.91,7.91,0,0,1,810,655.7a8.12,8.12,0,0,1,0,11.52A7.88,7.88,0,0,1,804.24,669.59Z" transform="translate(-66 -503)"/><path class="cls-15" d="M908.37,600l-43.85,99.18q-2.24,5.31-7.75,5.32H834.2a7.93,7.93,0,0,1-5.77-2.33,7.8,7.8,0,0,1-2.37-5.81,7.68,7.68,0,0,1,2.37-5.71,7.91,7.91,0,0,1,5.76-2.32h17.43l11.14-25.86h-4q-5.52,0-8-5.71L826.44,600V584.28a8,8,0,0,1,2.33-5.77,7.58,7.58,0,0,1,5.62-2.37,8.16,8.16,0,0,1,5.85,2.37,7.71,7.71,0,0,1,2.47,5.77v12.1L864.12,646h5.65l22.1-49.4,0-12.49a7.75,7.75,0,0,1,2.47-5.65,8,8,0,0,1,5.86-2.47,8.27,8.27,0,0,1,8.13,8.13Z" transform="translate(-66 -503)"/><line class="cls-16" x1="198.5" y1="194.5" x2="735.5" y2="194.5"/></svg>